<mxfile host="app.diagrams.net" modified="2023-11-13T15:56:27.764Z" agent="Mozilla/5.0 (Windows NT 10.0; Win64; x64) AppleWebKit/537.36 (KHTML, like Gecko) Chrome/119.0.0.0 Safari/537.36" etag="U2Gjdj6etWlx2swJg5sY" version="22.1.0" type="github">
  <diagram id="C5RBs43oDa-KdzZeNtuy" name="Page-1">
    <mxGraphModel dx="1434" dy="768" grid="0" gridSize="10" guides="1" tooltips="1" connect="1" arrows="1" fold="1" page="1" pageScale="1" pageWidth="1169" pageHeight="827" background="none" math="0" shadow="0">
      <root>
        <mxCell id="WIyWlLk6GJQsqaUBKTNV-0" />
        <mxCell id="WIyWlLk6GJQsqaUBKTNV-1" parent="WIyWlLk6GJQsqaUBKTNV-0" />
        <mxCell id="RX2ENmDcu3Dvk_bNdVDa-16" value="" style="edgeStyle=orthogonalEdgeStyle;rounded=0;orthogonalLoop=1;jettySize=auto;html=1;fillColor=#fad7ac;strokeColor=#b46504;shadow=0;" parent="WIyWlLk6GJQsqaUBKTNV-1" source="RX2ENmDcu3Dvk_bNdVDa-2" target="RX2ENmDcu3Dvk_bNdVDa-5" edge="1">
          <mxGeometry relative="1" as="geometry" />
        </mxCell>
        <mxCell id="RX2ENmDcu3Dvk_bNdVDa-2" value="start" style="html=1;dashed=0;whiteSpace=wrap;shape=mxgraph.dfd.start;fillColor=#fad7ac;strokeColor=#b46504;shadow=0;rounded=0;" parent="WIyWlLk6GJQsqaUBKTNV-1" vertex="1">
          <mxGeometry x="20" y="19.76" width="80" height="30" as="geometry" />
        </mxCell>
        <mxCell id="RX2ENmDcu3Dvk_bNdVDa-17" value="" style="edgeStyle=orthogonalEdgeStyle;rounded=0;orthogonalLoop=1;jettySize=auto;html=1;fillColor=#fad7ac;strokeColor=#b46504;shadow=0;" parent="WIyWlLk6GJQsqaUBKTNV-1" source="RX2ENmDcu3Dvk_bNdVDa-5" target="RX2ENmDcu3Dvk_bNdVDa-7" edge="1">
          <mxGeometry relative="1" as="geometry" />
        </mxCell>
        <mxCell id="RX2ENmDcu3Dvk_bNdVDa-5" value="proceso conexión SFTP" style="html=1;dashed=0;whiteSpace=wrap;fillColor=#fad7ac;strokeColor=#b46504;shadow=0;rounded=0;" parent="WIyWlLk6GJQsqaUBKTNV-1" vertex="1">
          <mxGeometry x="190" y="9.760000000000005" width="100" height="50" as="geometry" />
        </mxCell>
        <mxCell id="RX2ENmDcu3Dvk_bNdVDa-13" value="NO" style="edgeStyle=orthogonalEdgeStyle;rounded=0;orthogonalLoop=1;jettySize=auto;html=1;fillColor=#fad7ac;strokeColor=#b46504;shadow=0;" parent="WIyWlLk6GJQsqaUBKTNV-1" source="RX2ENmDcu3Dvk_bNdVDa-7" target="RX2ENmDcu3Dvk_bNdVDa-12" edge="1">
          <mxGeometry relative="1" as="geometry" />
        </mxCell>
        <mxCell id="nDe-Q1g_Fh-IzwO_YxFA-0" value="" style="edgeStyle=orthogonalEdgeStyle;rounded=0;orthogonalLoop=1;jettySize=auto;html=1;fillColor=#fad7ac;strokeColor=#b46504;" edge="1" parent="WIyWlLk6GJQsqaUBKTNV-1" source="RX2ENmDcu3Dvk_bNdVDa-7" target="RX2ENmDcu3Dvk_bNdVDa-21">
          <mxGeometry relative="1" as="geometry" />
        </mxCell>
        <mxCell id="RX2ENmDcu3Dvk_bNdVDa-7" value="valida credenciales" style="rhombus;whiteSpace=wrap;html=1;dashed=0;fillColor=#fad7ac;strokeColor=#b46504;shadow=0;rounded=0;" parent="WIyWlLk6GJQsqaUBKTNV-1" vertex="1">
          <mxGeometry x="192.5" y="80" width="95" height="90" as="geometry" />
        </mxCell>
        <mxCell id="RX2ENmDcu3Dvk_bNdVDa-11" value="end" style="html=1;dashed=0;whiteSpace=wrap;shape=mxgraph.dfd.start;fillColor=#fad7ac;strokeColor=#b46504;shadow=0;rounded=0;" parent="WIyWlLk6GJQsqaUBKTNV-1" vertex="1">
          <mxGeometry x="40" y="220" width="80" height="30" as="geometry" />
        </mxCell>
        <mxCell id="RX2ENmDcu3Dvk_bNdVDa-14" value="" style="edgeStyle=orthogonalEdgeStyle;rounded=0;orthogonalLoop=1;jettySize=auto;html=1;fillColor=#fad7ac;strokeColor=#b46504;shadow=0;" parent="WIyWlLk6GJQsqaUBKTNV-1" source="RX2ENmDcu3Dvk_bNdVDa-12" target="RX2ENmDcu3Dvk_bNdVDa-11" edge="1">
          <mxGeometry relative="1" as="geometry" />
        </mxCell>
        <mxCell id="RX2ENmDcu3Dvk_bNdVDa-12" value="mail-evento error credenciales" style="shape=parallelogram;perimeter=parallelogramPerimeter;whiteSpace=wrap;html=1;dashed=0;fillColor=#fad7ac;strokeColor=#b46504;shadow=0;rounded=0;" parent="WIyWlLk6GJQsqaUBKTNV-1" vertex="1">
          <mxGeometry x="15" y="95" width="130" height="60" as="geometry" />
        </mxCell>
        <mxCell id="nDe-Q1g_Fh-IzwO_YxFA-1" value="NO" style="edgeStyle=orthogonalEdgeStyle;rounded=0;orthogonalLoop=1;jettySize=auto;html=1;fillColor=#fad7ac;strokeColor=#b46504;" edge="1" parent="WIyWlLk6GJQsqaUBKTNV-1" source="RX2ENmDcu3Dvk_bNdVDa-21" target="RX2ENmDcu3Dvk_bNdVDa-23">
          <mxGeometry relative="1" as="geometry" />
        </mxCell>
        <mxCell id="RX2ENmDcu3Dvk_bNdVDa-21" value="existe?" style="shape=rhombus;html=1;dashed=0;whiteSpace=wrap;perimeter=rhombusPerimeter;fillColor=#fad7ac;strokeColor=#b46504;shadow=0;rounded=0;" parent="WIyWlLk6GJQsqaUBKTNV-1" vertex="1">
          <mxGeometry x="343.12" y="194.38" width="80" height="80" as="geometry" />
        </mxCell>
        <mxCell id="RX2ENmDcu3Dvk_bNdVDa-25" value="" style="edgeStyle=orthogonalEdgeStyle;rounded=0;orthogonalLoop=1;jettySize=auto;html=1;fillColor=#fad7ac;strokeColor=#b46504;shadow=0;" parent="WIyWlLk6GJQsqaUBKTNV-1" source="RX2ENmDcu3Dvk_bNdVDa-23" target="RX2ENmDcu3Dvk_bNdVDa-11" edge="1">
          <mxGeometry relative="1" as="geometry" />
        </mxCell>
        <mxCell id="RX2ENmDcu3Dvk_bNdVDa-23" value="mail-evento error not found file" style="shape=parallelogram;perimeter=parallelogramPerimeter;whiteSpace=wrap;html=1;fixedSize=1;dashed=0;fillColor=#fad7ac;strokeColor=#b46504;shadow=0;rounded=0;" parent="WIyWlLk6GJQsqaUBKTNV-1" vertex="1">
          <mxGeometry x="170" y="201.88" width="140" height="65" as="geometry" />
        </mxCell>
        <mxCell id="RX2ENmDcu3Dvk_bNdVDa-33" value="" style="edgeStyle=orthogonalEdgeStyle;rounded=0;orthogonalLoop=1;jettySize=auto;html=1;fillColor=#fad7ac;strokeColor=#b46504;shadow=0;" parent="WIyWlLk6GJQsqaUBKTNV-1" source="RX2ENmDcu3Dvk_bNdVDa-30" target="RX2ENmDcu3Dvk_bNdVDa-32" edge="1">
          <mxGeometry relative="1" as="geometry" />
        </mxCell>
        <mxCell id="RX2ENmDcu3Dvk_bNdVDa-30" value="reglas de normalización" style="shape=hexagon;perimeter=hexagonPerimeter2;whiteSpace=wrap;html=1;size=0.25;fillColor=#fad7ac;strokeColor=#b46504;shadow=0;rounded=0;" parent="WIyWlLk6GJQsqaUBKTNV-1" vertex="1">
          <mxGeometry x="520" y="335" width="100" height="50" as="geometry" />
        </mxCell>
        <mxCell id="RX2ENmDcu3Dvk_bNdVDa-35" value="NO" style="edgeStyle=orthogonalEdgeStyle;rounded=0;orthogonalLoop=1;jettySize=auto;html=1;fillColor=#fad7ac;strokeColor=#b46504;shadow=0;" parent="WIyWlLk6GJQsqaUBKTNV-1" source="RX2ENmDcu3Dvk_bNdVDa-32" target="RX2ENmDcu3Dvk_bNdVDa-34" edge="1">
          <mxGeometry relative="1" as="geometry" />
        </mxCell>
        <mxCell id="RX2ENmDcu3Dvk_bNdVDa-45" value="SI" style="edgeStyle=orthogonalEdgeStyle;rounded=0;orthogonalLoop=1;jettySize=auto;html=1;fillColor=#fad7ac;strokeColor=#b46504;shadow=0;" parent="WIyWlLk6GJQsqaUBKTNV-1" source="RX2ENmDcu3Dvk_bNdVDa-32" target="RX2ENmDcu3Dvk_bNdVDa-44" edge="1">
          <mxGeometry relative="1" as="geometry" />
        </mxCell>
        <mxCell id="RX2ENmDcu3Dvk_bNdVDa-32" value="es correcto" style="shape=rhombus;html=1;dashed=0;whiteSpace=wrap;perimeter=rhombusPerimeter;fillColor=#fad7ac;strokeColor=#b46504;shadow=0;rounded=0;" parent="WIyWlLk6GJQsqaUBKTNV-1" vertex="1">
          <mxGeometry x="363.12" y="335" width="60" height="50" as="geometry" />
        </mxCell>
        <mxCell id="RX2ENmDcu3Dvk_bNdVDa-34" value="mail-evento error normalización" style="shape=parallelogram;perimeter=parallelogramPerimeter;whiteSpace=wrap;html=1;fixedSize=1;dashed=0;fillColor=#fad7ac;strokeColor=#b46504;shadow=0;rounded=0;" parent="WIyWlLk6GJQsqaUBKTNV-1" vertex="1">
          <mxGeometry x="163.12" y="330" width="130" height="60" as="geometry" />
        </mxCell>
        <mxCell id="nDe-Q1g_Fh-IzwO_YxFA-6" value="" style="edgeStyle=orthogonalEdgeStyle;rounded=0;orthogonalLoop=1;jettySize=auto;html=1;fillColor=#fad7ac;strokeColor=#b46504;" edge="1" parent="WIyWlLk6GJQsqaUBKTNV-1" source="RX2ENmDcu3Dvk_bNdVDa-38" target="nDe-Q1g_Fh-IzwO_YxFA-5">
          <mxGeometry relative="1" as="geometry" />
        </mxCell>
        <mxCell id="RX2ENmDcu3Dvk_bNdVDa-38" value="proceso Base de datos interna" style="ellipse;whiteSpace=wrap;html=1;dashed=0;fillColor=#fad7ac;strokeColor=#b46504;shadow=0;rounded=0;" parent="WIyWlLk6GJQsqaUBKTNV-1" vertex="1">
          <mxGeometry x="495" y="80" width="90" height="85" as="geometry" />
        </mxCell>
        <mxCell id="RX2ENmDcu3Dvk_bNdVDa-61" value="" style="edgeStyle=orthogonalEdgeStyle;rounded=0;orthogonalLoop=1;jettySize=auto;html=1;fillColor=#fad7ac;strokeColor=#b46504;shadow=0;" parent="WIyWlLk6GJQsqaUBKTNV-1" source="RX2ENmDcu3Dvk_bNdVDa-44" target="RX2ENmDcu3Dvk_bNdVDa-47" edge="1">
          <mxGeometry relative="1" as="geometry" />
        </mxCell>
        <mxCell id="RX2ENmDcu3Dvk_bNdVDa-44" value="Proceso data Neotel" style="ellipse;whiteSpace=wrap;html=1;dashed=0;fillColor=#fad7ac;strokeColor=#b46504;shadow=0;rounded=0;" parent="WIyWlLk6GJQsqaUBKTNV-1" vertex="1">
          <mxGeometry x="348.12" y="430" width="90" height="90" as="geometry" />
        </mxCell>
        <mxCell id="RX2ENmDcu3Dvk_bNdVDa-60" value="" style="edgeStyle=orthogonalEdgeStyle;rounded=0;orthogonalLoop=1;jettySize=auto;html=1;fillColor=#fad7ac;strokeColor=#b46504;shadow=0;" parent="WIyWlLk6GJQsqaUBKTNV-1" source="RX2ENmDcu3Dvk_bNdVDa-47" target="RX2ENmDcu3Dvk_bNdVDa-59" edge="1">
          <mxGeometry relative="1" as="geometry" />
        </mxCell>
        <mxCell id="RX2ENmDcu3Dvk_bNdVDa-47" value="insert data POST TASK WEBSERVICES NEOTEL" style="shape=manualInput;whiteSpace=wrap;html=1;dashed=0;size=15;fillColor=#fad7ac;strokeColor=#b46504;shadow=0;rounded=0;" parent="WIyWlLk6GJQsqaUBKTNV-1" vertex="1">
          <mxGeometry x="145" y="440" width="126.88" height="70" as="geometry" />
        </mxCell>
        <mxCell id="RX2ENmDcu3Dvk_bNdVDa-51" value="" style="edgeStyle=orthogonalEdgeStyle;rounded=0;orthogonalLoop=1;jettySize=auto;html=1;fillColor=#fad7ac;strokeColor=#b46504;shadow=0;" parent="WIyWlLk6GJQsqaUBKTNV-1" source="RX2ENmDcu3Dvk_bNdVDa-49" target="RX2ENmDcu3Dvk_bNdVDa-30" edge="1">
          <mxGeometry relative="1" as="geometry">
            <Array as="points">
              <mxPoint x="804" y="360" />
            </Array>
          </mxGeometry>
        </mxCell>
        <mxCell id="RX2ENmDcu3Dvk_bNdVDa-49" value="normalización data" style="shape=manualInput;whiteSpace=wrap;html=1;dashed=0;size=15;fillColor=#fad7ac;strokeColor=#b46504;shadow=0;rounded=0;" parent="WIyWlLk6GJQsqaUBKTNV-1" vertex="1">
          <mxGeometry x="690" y="318.13" width="113.75" height="71.87" as="geometry" />
        </mxCell>
        <mxCell id="RX2ENmDcu3Dvk_bNdVDa-65" value="" style="edgeStyle=orthogonalEdgeStyle;rounded=0;orthogonalLoop=1;jettySize=auto;html=1;fillColor=#fad7ac;strokeColor=#b46504;shadow=0;" parent="WIyWlLk6GJQsqaUBKTNV-1" source="RX2ENmDcu3Dvk_bNdVDa-56" target="RX2ENmDcu3Dvk_bNdVDa-49" edge="1">
          <mxGeometry relative="1" as="geometry">
            <Array as="points">
              <mxPoint x="747" y="234" />
            </Array>
          </mxGeometry>
        </mxCell>
        <mxCell id="RX2ENmDcu3Dvk_bNdVDa-56" value="almacenamiento interno synergo" style="shape=cylinder;whiteSpace=wrap;html=1;boundedLbl=1;backgroundOutline=1;fillColor=#fad7ac;strokeColor=#b46504;shadow=0;rounded=0;" parent="WIyWlLk6GJQsqaUBKTNV-1" vertex="1">
          <mxGeometry x="710" y="190.63" width="100" height="88.75" as="geometry" />
        </mxCell>
        <mxCell id="RX2ENmDcu3Dvk_bNdVDa-67" value="" style="edgeStyle=orthogonalEdgeStyle;rounded=0;orthogonalLoop=1;jettySize=auto;html=1;fillColor=#fad7ac;strokeColor=#b46504;" parent="WIyWlLk6GJQsqaUBKTNV-1" source="RX2ENmDcu3Dvk_bNdVDa-59" target="RX2ENmDcu3Dvk_bNdVDa-66" edge="1">
          <mxGeometry relative="1" as="geometry" />
        </mxCell>
        <mxCell id="RX2ENmDcu3Dvk_bNdVDa-59" value="DDBB Neotel CRM" style="shape=cylinder;whiteSpace=wrap;html=1;boundedLbl=1;backgroundOutline=1;fillColor=#fad7ac;strokeColor=#b46504;shadow=0;rounded=0;" parent="WIyWlLk6GJQsqaUBKTNV-1" vertex="1">
          <mxGeometry x="148.44" y="542.5" width="120" height="90" as="geometry" />
        </mxCell>
        <mxCell id="RX2ENmDcu3Dvk_bNdVDa-62" value="end" style="html=1;dashed=0;whiteSpace=wrap;shape=mxgraph.dfd.start;fillColor=#fad7ac;strokeColor=#b46504;shadow=0;rounded=0;" parent="WIyWlLk6GJQsqaUBKTNV-1" vertex="1">
          <mxGeometry x="510" y="572.5" width="80" height="30" as="geometry" />
        </mxCell>
        <mxCell id="RX2ENmDcu3Dvk_bNdVDa-64" value="" style="endArrow=classic;html=1;rounded=0;exitX=0;exitY=0.5;exitDx=0;exitDy=0;entryX=0.5;entryY=0.5;entryDx=0;entryDy=15;entryPerimeter=0;fillColor=#fad7ac;strokeColor=#b46504;shadow=0;" parent="WIyWlLk6GJQsqaUBKTNV-1" source="RX2ENmDcu3Dvk_bNdVDa-34" target="RX2ENmDcu3Dvk_bNdVDa-11" edge="1">
          <mxGeometry width="50" height="50" relative="1" as="geometry">
            <mxPoint x="300" y="390" as="sourcePoint" />
            <mxPoint x="350" y="340" as="targetPoint" />
            <Array as="points">
              <mxPoint x="80" y="360" />
            </Array>
          </mxGeometry>
        </mxCell>
        <mxCell id="RX2ENmDcu3Dvk_bNdVDa-68" value="" style="edgeStyle=orthogonalEdgeStyle;rounded=0;orthogonalLoop=1;jettySize=auto;html=1;fillColor=#fad7ac;strokeColor=#b46504;" parent="WIyWlLk6GJQsqaUBKTNV-1" source="RX2ENmDcu3Dvk_bNdVDa-66" target="RX2ENmDcu3Dvk_bNdVDa-62" edge="1">
          <mxGeometry relative="1" as="geometry" />
        </mxCell>
        <mxCell id="RX2ENmDcu3Dvk_bNdVDa-66" value="mail-evento ok CRM" style="shape=parallelogram;perimeter=parallelogramPerimeter;whiteSpace=wrap;html=1;dashed=0;fillColor=#fad7ac;strokeColor=#b46504;rounded=0;" parent="WIyWlLk6GJQsqaUBKTNV-1" vertex="1">
          <mxGeometry x="330" y="555" width="140" height="65" as="geometry" />
        </mxCell>
        <mxCell id="nDe-Q1g_Fh-IzwO_YxFA-2" value="SI" style="edgeStyle=orthogonalEdgeStyle;rounded=0;orthogonalLoop=1;jettySize=auto;html=1;fillColor=#fad7ac;strokeColor=#b46504;shadow=0;" edge="1" parent="WIyWlLk6GJQsqaUBKTNV-1" source="RX2ENmDcu3Dvk_bNdVDa-21" target="RX2ENmDcu3Dvk_bNdVDa-9">
          <mxGeometry relative="1" as="geometry">
            <mxPoint x="423" y="234" as="sourcePoint" />
            <mxPoint x="570" y="235" as="targetPoint" />
          </mxGeometry>
        </mxCell>
        <mxCell id="nDe-Q1g_Fh-IzwO_YxFA-3" value="" style="edgeStyle=orthogonalEdgeStyle;rounded=0;orthogonalLoop=1;jettySize=auto;html=1;fillColor=#fad7ac;strokeColor=#b46504;" edge="1" parent="WIyWlLk6GJQsqaUBKTNV-1" source="RX2ENmDcu3Dvk_bNdVDa-9" target="RX2ENmDcu3Dvk_bNdVDa-38">
          <mxGeometry relative="1" as="geometry" />
        </mxCell>
        <mxCell id="RX2ENmDcu3Dvk_bNdVDa-9" value="proceso descarga de archivo" style="whiteSpace=wrap;html=1;dashed=0;fillColor=#fad7ac;strokeColor=#b46504;shadow=0;rounded=0;" parent="WIyWlLk6GJQsqaUBKTNV-1" vertex="1">
          <mxGeometry x="480" y="205" width="120" height="60" as="geometry" />
        </mxCell>
        <mxCell id="nDe-Q1g_Fh-IzwO_YxFA-7" value="" style="edgeStyle=orthogonalEdgeStyle;rounded=0;orthogonalLoop=1;jettySize=auto;html=1;fillColor=#fad7ac;strokeColor=#b46504;" edge="1" parent="WIyWlLk6GJQsqaUBKTNV-1" source="nDe-Q1g_Fh-IzwO_YxFA-5" target="RX2ENmDcu3Dvk_bNdVDa-56">
          <mxGeometry relative="1" as="geometry" />
        </mxCell>
        <mxCell id="nDe-Q1g_Fh-IzwO_YxFA-5" value="insert DATA&amp;nbsp;" style="shape=manualInput;whiteSpace=wrap;html=1;dashed=0;size=15;fillColor=#fad7ac;strokeColor=#b46504;" vertex="1" parent="WIyWlLk6GJQsqaUBKTNV-1">
          <mxGeometry x="710" y="97.49999999999999" width="100" height="50" as="geometry" />
        </mxCell>
      </root>
    </mxGraphModel>
  </diagram>
</mxfile>
